<?xml version="1.0" encoding="UTF-8"?>
<svg xmlns="http://www.w3.org/2000/svg" xmlns:xlink="http://www.w3.org/1999/xlink" viewBox="0 0 48 48" width="48px" height="48px">
<g id="surface89358138">
<path style=" stroke:none;fill-rule:nonzero;fill:rgb(100%,100%,100%);fill-opacity:1;" d="M 27 5.628906 C 32.589844 6.984375 36.75 11.953125 36.75 17.25 C 36.75 21.472656 34.667969 25.144531 30.75 27.066406 C 30.75 30.675781 30.75 34.226562 30.75 35.25 C 30.75 38.976562 27.726562 42 24 42 C 20.273438 42 17.25 38.976562 17.25 35.25 C 17.25 34.226562 17.25 30.675781 17.25 27.066406 C 13.332031 25.144531 11.25 21.46875 11.25 17.25 C 11.25 11.953125 15.410156 6.984375 21 5.628906 L 21 14.25 C 21 15.90625 22.34375 17.25 24 17.25 C 25.65625 17.25 27 15.90625 27 14.25 Z M 24 36.75 C 24.828125 36.75 25.5 36.078125 25.5 35.25 C 25.5 34.421875 24.828125 33.75 24 33.75 C 23.171875 33.75 22.5 34.421875 22.5 35.25 C 22.5 36.078125 23.171875 36.75 24 36.75 Z M 24 36.75 "/>
</g>
</svg>
