<?xml version="1.0" encoding="UTF-8"?>
<svg xmlns="http://www.w3.org/2000/svg" xmlns:xlink="http://www.w3.org/1999/xlink" viewBox="0 0 48 48" width="48px" height="48px">
<g id="surface89104370">
<path style=" stroke:none;fill-rule:nonzero;fill:rgb(100%,100%,100%);fill-opacity:1;" d="M 24 7.5 C 33.113281 7.5 40.5 14.886719 40.5 24 C 40.5 33.113281 33.113281 40.5 24 40.5 C 14.886719 40.5 7.5 33.113281 7.5 24 C 7.5 14.886719 14.886719 7.5 24 7.5 Z M 25.5 24 C 25.5 23.726562 25.5 13.773438 25.5 13.5 C 25.5 12.671875 24.828125 12 24 12 C 23.171875 12 22.5 12.671875 22.5 13.5 C 22.5 13.710938 22.5 19.648438 22.5 22.5 C 20.503906 22.5 15.226562 22.5 15 22.5 C 14.171875 22.5 13.5 23.171875 13.5 24 C 13.5 24.828125 14.171875 25.5 15 25.5 C 15.273438 25.5 23.871094 25.5 24 25.5 C 24.828125 25.5 25.5 24.828125 25.5 24 Z M 25.5 24 "/>
</g>
</svg>
