<?xml version="1.0" encoding="UTF-8"?>
<svg xmlns="http://www.w3.org/2000/svg" xmlns:xlink="http://www.w3.org/1999/xlink" viewBox="0 0 48 48" width="48px" height="48px">
<g id="surface89108529">
<path style=" stroke:none;fill-rule:nonzero;fill:rgb(100%,100%,100%);fill-opacity:1;" d="M 24 7.5 C 34.339844 7.5 42.75 14.214844 42.75 22.464844 C 42.75 30.71875 34.339844 37.429688 24 37.429688 C 23.515625 37.429688 23.015625 37.414062 22.511719 37.382812 C 16.984375 41.507812 12.453125 42.070312 12.257812 42.09375 C 12.203125 42.097656 12.144531 42.101562 12.085938 42.101562 C 11.5625 42.101562 11.070312 41.824219 10.796875 41.367188 C 10.496094 40.859375 10.519531 40.222656 10.859375 39.738281 C 10.878906 39.714844 12.335938 37.640625 13.863281 35.0625 C 8.507812 32.328125 5.25 27.621094 5.25 22.464844 C 5.25 14.214844 13.660156 7.5 24 7.5 Z M 24 7.5 "/>
</g>
</svg>
