<?xml version="1.0" encoding="UTF-8"?>
<svg xmlns="http://www.w3.org/2000/svg" xmlns:xlink="http://www.w3.org/1999/xlink" viewBox="0 0 48 48" width="48px" height="48px">
<g id="surface89353001">
<path style=" stroke:none;fill-rule:nonzero;fill:rgb(100%,100%,100%);fill-opacity:1;" d="M 24 6.75 C 15.367188 6.75 9.75 11.683594 9.75 20.25 L 9.75 24 C 9.75 24 9 25.390625 9 27 C 9 29.15625 10.753906 30.886719 12 31.5 C 13.421875 37.429688 20.25 41.25 24 41.25 C 27.75 41.25 34.578125 37.429688 36 31.5 C 37.246094 30.886719 39 28.890625 39 26.734375 C 39 25.125 38.25 24 38.25 24 L 38.25 20.25 C 38.25 10.136719 31.003906 9.566406 31.003906 9.566406 C 31.003906 9.566406 28.859375 6.75 24 6.75 Z M 29.558594 17.675781 C 30.695312 18.691406 33.355469 23.070312 33.386719 25.5 L 35.691406 25.5 C 35.855469 25.800781 36 26.210938 36 26.734375 C 36 28.390625 33.410156 29.429688 33.410156 29.429688 C 33.410156 34.398438 26.5625 38.25 24 38.25 C 21.4375 38.25 14.589844 34.101562 14.589844 29.429688 C 14.589844 29.429688 12 28.6875 12 27 C 12 26.371094 12.144531 25.871094 12.304688 25.5 L 14.351562 25.5 L 15.851562 22.492188 C 22.234375 22.394531 26.707031 20.492188 29.558594 17.675781 Z M 29.558594 17.675781 "/>
</g>
</svg>
