<?xml version="1.0" encoding="UTF-8"?>
<svg xmlns="http://www.w3.org/2000/svg" xmlns:xlink="http://www.w3.org/1999/xlink" viewBox="0 0 48 48" width="48px" height="48px">
<g id="surface89095769">
<path style=" stroke:none;fill-rule:nonzero;fill:rgb(100%,100%,100%);fill-opacity:1;" d="M 39.253906 21.015625 C 39.972656 21.140625 40.5 21.765625 40.5 22.496094 L 40.5 25.503906 C 40.5 26.234375 39.972656 26.859375 39.253906 26.984375 L 36.65625 27.429688 C 36.359375 28.527344 35.929688 29.5625 35.375 30.527344 L 36.894531 32.675781 C 37.316406 33.273438 37.246094 34.085938 36.730469 34.601562 L 34.601562 36.730469 C 34.085938 37.246094 33.273438 37.316406 32.675781 36.894531 L 30.527344 35.375 C 29.5625 35.929688 28.527344 36.359375 27.429688 36.65625 L 26.984375 39.253906 C 26.859375 39.972656 26.234375 40.5 25.503906 40.5 L 22.496094 40.5 C 21.765625 40.5 21.140625 39.972656 21.015625 39.253906 L 20.570312 36.65625 C 19.472656 36.359375 18.4375 35.929688 17.472656 35.375 L 15.324219 36.894531 C 14.726562 37.316406 13.914062 37.246094 13.398438 36.730469 L 11.269531 34.601562 C 10.753906 34.085938 10.683594 33.273438 11.105469 32.675781 L 12.625 30.527344 C 12.070312 29.5625 11.640625 28.523438 11.34375 27.429688 L 8.746094 26.980469 C 8.027344 26.859375 7.5 26.234375 7.5 25.503906 L 7.5 22.496094 C 7.5 21.765625 8.027344 21.140625 8.746094 21.015625 L 11.34375 20.570312 C 11.640625 19.472656 12.070312 18.4375 12.625 17.472656 L 11.105469 15.324219 C 10.683594 14.726562 10.753906 13.914062 11.269531 13.398438 L 13.398438 11.269531 C 13.914062 10.753906 14.726562 10.683594 15.324219 11.105469 L 17.472656 12.625 C 18.4375 12.070312 19.472656 11.640625 20.570312 11.34375 L 21.015625 8.746094 C 21.140625 8.027344 21.765625 7.5 22.496094 7.5 L 25.503906 7.5 C 26.234375 7.5 26.859375 8.027344 26.984375 8.746094 L 27.429688 11.34375 C 28.527344 11.640625 29.5625 12.070312 30.527344 12.625 L 32.675781 11.105469 C 33.273438 10.683594 34.085938 10.753906 34.601562 11.269531 L 36.730469 13.398438 C 37.246094 13.914062 37.316406 14.726562 36.894531 15.324219 L 35.375 17.472656 C 35.929688 18.4375 36.359375 19.472656 36.65625 20.570312 Z M 24 30 C 27.3125 30 30 27.3125 30 24 C 30 20.6875 27.3125 18 24 18 C 20.6875 18 18 20.6875 18 24 C 18 27.3125 20.6875 30 24 30 Z M 24 30 "/>
</g>
</svg>
